<mxfile host="app.diagrams.net" modified="2023-10-24T04:30:48.715Z" agent="Mozilla/5.0 (Windows NT 10.0; Win64; x64) AppleWebKit/537.36 (KHTML, like Gecko) Chrome/118.0.0.0 Safari/537.36 Edg/118.0.2088.61" etag="L_mX06CXDxD1ftpNxQS3" version="22.0.6" type="github">
  <diagram name="第 1 页" id="g-Br8pHzpUqvoDVOM1Fi">
    <mxGraphModel dx="1913" dy="1144" grid="1" gridSize="10" guides="1" tooltips="1" connect="1" arrows="1" fold="1" page="1" pageScale="1" pageWidth="827" pageHeight="1169" math="0" shadow="0">
      <root>
        <mxCell id="0" />
        <mxCell id="1" parent="0" />
        <mxCell id="i8rNZd-orDB0EoPO1Iy--49" style="edgeStyle=none;curved=1;rounded=0;orthogonalLoop=1;jettySize=auto;html=1;exitX=1;exitY=0.3333333333333333;exitDx=0;exitDy=0;exitPerimeter=0;entryX=0;entryY=0.5;entryDx=0;entryDy=0;fontSize=12;startSize=8;endSize=8;" edge="1" parent="1" source="i8rNZd-orDB0EoPO1Iy--22" target="i8rNZd-orDB0EoPO1Iy--29">
          <mxGeometry relative="1" as="geometry" />
        </mxCell>
        <mxCell id="i8rNZd-orDB0EoPO1Iy--51" style="edgeStyle=none;curved=1;rounded=0;orthogonalLoop=1;jettySize=auto;html=1;exitX=1;exitY=0.3333333333333333;exitDx=0;exitDy=0;exitPerimeter=0;entryX=0;entryY=0.5;entryDx=0;entryDy=0;fontSize=12;startSize=8;endSize=8;" edge="1" parent="1" source="i8rNZd-orDB0EoPO1Iy--22" target="i8rNZd-orDB0EoPO1Iy--30">
          <mxGeometry relative="1" as="geometry" />
        </mxCell>
        <mxCell id="i8rNZd-orDB0EoPO1Iy--52" style="edgeStyle=none;curved=1;rounded=0;orthogonalLoop=1;jettySize=auto;html=1;exitX=1;exitY=0.3333333333333333;exitDx=0;exitDy=0;exitPerimeter=0;entryX=0;entryY=0.5;entryDx=0;entryDy=0;fontSize=12;startSize=8;endSize=8;" edge="1" parent="1" source="i8rNZd-orDB0EoPO1Iy--22" target="i8rNZd-orDB0EoPO1Iy--31">
          <mxGeometry relative="1" as="geometry" />
        </mxCell>
        <mxCell id="i8rNZd-orDB0EoPO1Iy--53" style="edgeStyle=none;curved=1;rounded=0;orthogonalLoop=1;jettySize=auto;html=1;exitX=1;exitY=0.3333333333333333;exitDx=0;exitDy=0;exitPerimeter=0;entryX=0;entryY=0.5;entryDx=0;entryDy=0;fontSize=12;startSize=8;endSize=8;" edge="1" parent="1" source="i8rNZd-orDB0EoPO1Iy--22" target="i8rNZd-orDB0EoPO1Iy--32">
          <mxGeometry relative="1" as="geometry" />
        </mxCell>
        <mxCell id="i8rNZd-orDB0EoPO1Iy--54" style="edgeStyle=none;curved=1;rounded=0;orthogonalLoop=1;jettySize=auto;html=1;exitX=1;exitY=0.3333333333333333;exitDx=0;exitDy=0;exitPerimeter=0;entryX=0.5;entryY=0;entryDx=0;entryDy=0;fontSize=12;startSize=8;endSize=8;" edge="1" parent="1" source="i8rNZd-orDB0EoPO1Iy--22" target="i8rNZd-orDB0EoPO1Iy--33">
          <mxGeometry relative="1" as="geometry" />
        </mxCell>
        <mxCell id="i8rNZd-orDB0EoPO1Iy--55" style="edgeStyle=none;curved=1;rounded=0;orthogonalLoop=1;jettySize=auto;html=1;exitX=1;exitY=0.3333333333333333;exitDx=0;exitDy=0;exitPerimeter=0;entryX=0.5;entryY=0;entryDx=0;entryDy=0;fontSize=12;startSize=8;endSize=8;" edge="1" parent="1" source="i8rNZd-orDB0EoPO1Iy--22" target="i8rNZd-orDB0EoPO1Iy--34">
          <mxGeometry relative="1" as="geometry" />
        </mxCell>
        <mxCell id="i8rNZd-orDB0EoPO1Iy--22" value="超级管理员" style="shape=umlActor;verticalLabelPosition=bottom;verticalAlign=top;html=1;outlineConnect=0;fontSize=16;" vertex="1" parent="1">
          <mxGeometry x="140" y="310" width="30" height="60" as="geometry" />
        </mxCell>
        <mxCell id="i8rNZd-orDB0EoPO1Iy--59" style="edgeStyle=none;curved=1;rounded=0;orthogonalLoop=1;jettySize=auto;html=1;exitX=0;exitY=0.3333333333333333;exitDx=0;exitDy=0;exitPerimeter=0;entryX=1;entryY=0.5;entryDx=0;entryDy=0;fontSize=12;startSize=8;endSize=8;" edge="1" parent="1" source="i8rNZd-orDB0EoPO1Iy--23" target="i8rNZd-orDB0EoPO1Iy--30">
          <mxGeometry relative="1" as="geometry" />
        </mxCell>
        <mxCell id="i8rNZd-orDB0EoPO1Iy--60" style="edgeStyle=none;curved=1;rounded=0;orthogonalLoop=1;jettySize=auto;html=1;exitX=0;exitY=0.3333333333333333;exitDx=0;exitDy=0;exitPerimeter=0;entryX=1;entryY=0.5;entryDx=0;entryDy=0;fontSize=12;startSize=8;endSize=8;" edge="1" parent="1" source="i8rNZd-orDB0EoPO1Iy--23" target="i8rNZd-orDB0EoPO1Iy--31">
          <mxGeometry relative="1" as="geometry" />
        </mxCell>
        <mxCell id="i8rNZd-orDB0EoPO1Iy--61" style="edgeStyle=none;curved=1;rounded=0;orthogonalLoop=1;jettySize=auto;html=1;exitX=0;exitY=0.3333333333333333;exitDx=0;exitDy=0;exitPerimeter=0;entryX=1;entryY=0.5;entryDx=0;entryDy=0;fontSize=12;startSize=8;endSize=8;" edge="1" parent="1" source="i8rNZd-orDB0EoPO1Iy--23" target="i8rNZd-orDB0EoPO1Iy--32">
          <mxGeometry relative="1" as="geometry" />
        </mxCell>
        <mxCell id="i8rNZd-orDB0EoPO1Iy--62" style="edgeStyle=none;curved=1;rounded=0;orthogonalLoop=1;jettySize=auto;html=1;exitX=0;exitY=0.3333333333333333;exitDx=0;exitDy=0;exitPerimeter=0;entryX=0.5;entryY=0;entryDx=0;entryDy=0;fontSize=12;startSize=8;endSize=8;" edge="1" parent="1" source="i8rNZd-orDB0EoPO1Iy--23" target="i8rNZd-orDB0EoPO1Iy--34">
          <mxGeometry relative="1" as="geometry" />
        </mxCell>
        <mxCell id="i8rNZd-orDB0EoPO1Iy--66" style="edgeStyle=none;curved=1;rounded=0;orthogonalLoop=1;jettySize=auto;html=1;exitX=0;exitY=0.3333333333333333;exitDx=0;exitDy=0;exitPerimeter=0;entryX=0.5;entryY=0;entryDx=0;entryDy=0;fontSize=12;startSize=8;endSize=8;" edge="1" parent="1" source="i8rNZd-orDB0EoPO1Iy--23" target="i8rNZd-orDB0EoPO1Iy--33">
          <mxGeometry relative="1" as="geometry" />
        </mxCell>
        <mxCell id="i8rNZd-orDB0EoPO1Iy--23" value="管理员" style="shape=umlActor;verticalLabelPosition=bottom;verticalAlign=top;html=1;outlineConnect=0;fontSize=16;" vertex="1" parent="1">
          <mxGeometry x="870" y="300" width="30" height="60" as="geometry" />
        </mxCell>
        <mxCell id="i8rNZd-orDB0EoPO1Iy--57" style="edgeStyle=none;curved=1;rounded=0;orthogonalLoop=1;jettySize=auto;html=1;exitX=0;exitY=0.3333333333333333;exitDx=0;exitDy=0;exitPerimeter=0;entryX=0.5;entryY=1;entryDx=0;entryDy=0;fontSize=12;startSize=8;endSize=8;" edge="1" parent="1" source="i8rNZd-orDB0EoPO1Iy--24" target="i8rNZd-orDB0EoPO1Iy--33">
          <mxGeometry relative="1" as="geometry" />
        </mxCell>
        <mxCell id="i8rNZd-orDB0EoPO1Iy--58" style="edgeStyle=none;curved=1;rounded=0;orthogonalLoop=1;jettySize=auto;html=1;exitX=1;exitY=0.3333333333333333;exitDx=0;exitDy=0;exitPerimeter=0;entryX=0.5;entryY=1;entryDx=0;entryDy=0;fontSize=12;startSize=8;endSize=8;" edge="1" parent="1" source="i8rNZd-orDB0EoPO1Iy--24" target="i8rNZd-orDB0EoPO1Iy--34">
          <mxGeometry relative="1" as="geometry" />
        </mxCell>
        <mxCell id="i8rNZd-orDB0EoPO1Iy--24" value="用户" style="shape=umlActor;verticalLabelPosition=bottom;verticalAlign=top;html=1;outlineConnect=0;fontSize=16;" vertex="1" parent="1">
          <mxGeometry x="515" y="830" width="30" height="60" as="geometry" />
        </mxCell>
        <mxCell id="i8rNZd-orDB0EoPO1Iy--29" value="管理员管理" style="ellipse;whiteSpace=wrap;html=1;fontSize=16;" vertex="1" parent="1">
          <mxGeometry x="300" y="110" width="120" height="80" as="geometry" />
        </mxCell>
        <mxCell id="i8rNZd-orDB0EoPO1Iy--30" value="用户管理" style="ellipse;whiteSpace=wrap;html=1;fontSize=16;" vertex="1" parent="1">
          <mxGeometry x="470" y="190" width="120" height="80" as="geometry" />
        </mxCell>
        <mxCell id="i8rNZd-orDB0EoPO1Iy--31" value="仓库管理" style="ellipse;whiteSpace=wrap;html=1;fontSize=16;" vertex="1" parent="1">
          <mxGeometry x="470" y="290" width="120" height="80" as="geometry" />
        </mxCell>
        <mxCell id="i8rNZd-orDB0EoPO1Iy--32" value="物品分类管理" style="ellipse;whiteSpace=wrap;html=1;fontSize=16;" vertex="1" parent="1">
          <mxGeometry x="470" y="400" width="120" height="80" as="geometry" />
        </mxCell>
        <mxCell id="i8rNZd-orDB0EoPO1Iy--43" style="edgeStyle=none;curved=1;rounded=0;orthogonalLoop=1;jettySize=auto;html=1;exitX=1;exitY=0.5;exitDx=0;exitDy=0;entryX=0;entryY=0.5;entryDx=0;entryDy=0;fontSize=12;startSize=8;endSize=8;" edge="1" parent="1" source="i8rNZd-orDB0EoPO1Iy--33" target="i8rNZd-orDB0EoPO1Iy--37">
          <mxGeometry relative="1" as="geometry" />
        </mxCell>
        <mxCell id="i8rNZd-orDB0EoPO1Iy--44" style="edgeStyle=none;curved=1;rounded=0;orthogonalLoop=1;jettySize=auto;html=1;exitX=1;exitY=0.5;exitDx=0;exitDy=0;entryX=0;entryY=0.5;entryDx=0;entryDy=0;fontSize=12;startSize=8;endSize=8;" edge="1" parent="1" source="i8rNZd-orDB0EoPO1Iy--33" target="i8rNZd-orDB0EoPO1Iy--42">
          <mxGeometry relative="1" as="geometry" />
        </mxCell>
        <mxCell id="i8rNZd-orDB0EoPO1Iy--33" value="物品管理" style="ellipse;whiteSpace=wrap;html=1;fontSize=16;" vertex="1" parent="1">
          <mxGeometry x="290" y="620" width="120" height="80" as="geometry" />
        </mxCell>
        <mxCell id="i8rNZd-orDB0EoPO1Iy--34" value="记录管理" style="ellipse;whiteSpace=wrap;html=1;fontSize=16;" vertex="1" parent="1">
          <mxGeometry x="650" y="620" width="120" height="80" as="geometry" />
        </mxCell>
        <mxCell id="i8rNZd-orDB0EoPO1Iy--48" style="edgeStyle=none;curved=1;rounded=0;orthogonalLoop=1;jettySize=auto;html=1;exitX=1;exitY=0.5;exitDx=0;exitDy=0;entryX=0;entryY=0.5;entryDx=0;entryDy=0;fontSize=12;startSize=8;endSize=8;" edge="1" parent="1" source="i8rNZd-orDB0EoPO1Iy--37" target="i8rNZd-orDB0EoPO1Iy--34">
          <mxGeometry relative="1" as="geometry" />
        </mxCell>
        <mxCell id="i8rNZd-orDB0EoPO1Iy--37" value="物品入库" style="ellipse;whiteSpace=wrap;html=1;fontSize=16;" vertex="1" parent="1">
          <mxGeometry x="470" y="570" width="120" height="80" as="geometry" />
        </mxCell>
        <mxCell id="i8rNZd-orDB0EoPO1Iy--46" style="edgeStyle=none;curved=1;rounded=0;orthogonalLoop=1;jettySize=auto;html=1;exitX=1;exitY=0.5;exitDx=0;exitDy=0;entryX=0;entryY=0.5;entryDx=0;entryDy=0;fontSize=12;startSize=8;endSize=8;" edge="1" parent="1" source="i8rNZd-orDB0EoPO1Iy--42" target="i8rNZd-orDB0EoPO1Iy--34">
          <mxGeometry relative="1" as="geometry" />
        </mxCell>
        <mxCell id="i8rNZd-orDB0EoPO1Iy--42" value="物品出库" style="ellipse;whiteSpace=wrap;html=1;fontSize=16;" vertex="1" parent="1">
          <mxGeometry x="470" y="680" width="120" height="80" as="geometry" />
        </mxCell>
        <mxCell id="i8rNZd-orDB0EoPO1Iy--64" value="" style="whiteSpace=wrap;html=1;aspect=fixed;fontSize=16;fillStyle=cross-hatch;" vertex="1" parent="1">
          <mxGeometry x="60" y="50" width="910" height="910" as="geometry" />
        </mxCell>
      </root>
    </mxGraphModel>
  </diagram>
</mxfile>
